<svg width="54" height="54" viewBox="0 0 54 54" fill="none" xmlns="http://www.w3.org/2000/svg">
<g id="calculator">
<rect id="background" width="54" height="54" rx="27" fill="#AAAAAA"/>
<path id="icon" d="M12.7778 10H41.2222C42.2041 10 43 10.7611 43 11.7V42.3C43 43.2389 42.2041 44 41.2222 44H12.7778C11.7959 44 11 43.2389 11 42.3V11.7C11 10.7611 11.7959 10 12.7778 10ZM14.5556 13.4V40.6H39.4444V13.4H14.5556ZM18.1111 16.8H35.8889V23.6H18.1111V16.8ZM18.1111 27H21.6667V30.4H18.1111V27ZM18.1111 33.8H21.6667V37.2H18.1111V33.8ZM25.2222 27H28.7778V30.4H25.2222V27ZM25.2222 33.8H28.7778V37.2H25.2222V33.8ZM32.3333 27H35.8889V37.2H32.3333V27Z" fill="#222222"/>
</g>
</svg>
